<svg width="22" height="19" viewBox="0 0 22 19" fill="none" xmlns="http://www.w3.org/2000/svg">
<path fill-rule="evenodd" clip-rule="evenodd" d="M21.4359 8.89103C21.4359 13.8014 16.6373 17.7821 10.7179 17.7821C10.0021 17.7821 9.30268 17.7238 8.62613 17.6128C8.03011 17.5551 7.67622 17.6103 7.06531 17.7992C6.83941 17.8691 6.57551 18.0102 6.27306 18.1719C5.59549 18.5343 4.72446 19 3.65387 19C3.6337 19 3.70152 18.9328 3.81759 18.8179C4.20195 18.4373 5.1154 17.5328 5.1154 16.8077V16.4721C2.0466 14.9081 0 12.0978 0 8.89103C0 3.98065 4.79859 0 10.7179 0C16.6373 0 21.4359 3.98065 21.4359 8.89103Z" fill="#045C14"/>
</svg>
