<svg width="32" height="32" viewBox="0 0 32 32" fill="none" xmlns="http://www.w3.org/2000/svg">
<path d="M30.25 27.8416V14.3801C30.25 13.2314 30.25 12.657 30.1019 12.1281C29.9708 11.6596 29.7553 11.2189 29.4659 10.8277C29.1393 10.3861 28.686 10.0335 27.7792 9.32824L19.9292 3.22269C18.5239 2.12967 17.8213 1.58317 17.0454 1.37309C16.3608 1.18773 15.6392 1.18773 14.9546 1.37309C14.1787 1.58317 13.4761 2.12967 12.0708 3.22269L4.22078 9.32824C3.31404 10.0335 2.86067 10.3861 2.53405 10.8277C2.24473 11.2189 2.0292 11.6596 1.89805 12.1281C1.75 12.657 1.75 13.2314 1.75 14.3801V27.8416C1.75 28.9617 1.75 29.5218 1.96799 29.9496C2.15973 30.3259 2.46569 30.6319 2.84202 30.8236C3.26984 31.0416 3.8299 31.0416 4.95 31.0416H7.25833C8.37844 31.0416 8.93849 31.0416 9.36631 30.8236C9.74264 30.6319 10.0486 30.3259 10.2403 29.9496C10.4583 29.5218 10.4583 28.9617 10.4583 27.8416V23.125C10.4583 20.0644 12.9394 17.5833 16 17.5833C19.0606 17.5833 21.5417 20.0644 21.5417 23.125V27.8416C21.5417 28.9617 21.5417 29.5218 21.7597 29.9496C21.9514 30.3259 22.2574 30.6319 22.6337 30.8236C23.0615 31.0416 23.6216 31.0416 24.7417 31.0416H27.05C28.1701 31.0416 28.7302 31.0416 29.158 30.8236C29.5343 30.6319 29.8403 30.3259 30.032 29.9496C30.25 29.5218 30.25 28.9617 30.25 27.8416Z" stroke="#262F56" stroke-width="1.8"/>
</svg>
