<svg width="151" height="61" viewBox="0 0 151 61" fill="none" xmlns="http://www.w3.org/2000/svg">
<path d="M92 11.4999L84 12.9999L15 25.4999V49.4999V56.9999L64 48.4999V58.9999L71.5 46.9999L92 43.4999V11.4999Z" fill="#045C14" stroke="white"/>
<path d="M83.5 36.4999V12.9999L15 25.4999V48.4999L83.5 36.4999Z" fill="#17B978"/>
<path d="M84 4.49994V12.9999L42.5 20.4999V11.9999L84 4.49994Z" fill="#A7FF83"/>
<path d="M38 20.9999V2.99994L30.5 14.4999L7 18.8402V50.4999L15 48.9999V25.4999L38 20.9999Z" fill="#A7FF83"/>
<path d="M32.0933 42.0031C30.3998 42.2543 28.8106 42.1181 27.3256 41.5943C25.8542 41.0524 24.6265 40.1912 23.6426 39.0108C22.6722 37.8123 22.0649 36.39 21.8207 34.744C21.5765 33.098 21.7459 31.5686 22.3289 30.1558C22.9253 28.7247 23.8501 27.5442 25.1032 26.6143C26.3698 25.6661 27.8577 25.0653 29.567 24.8117C31.0072 24.598 32.3426 24.6587 33.5731 24.9938C34.8194 25.3265 35.9087 25.9089 36.8409 26.7411L34.71 29.3865C33.3938 28.2554 31.9048 27.8131 30.243 28.0597C29.2142 28.2123 28.3303 28.578 27.5913 29.1567C26.8498 29.7196 26.3095 30.4387 25.9703 31.3139C25.6469 32.1868 25.5615 33.1377 25.7141 34.1664C25.8667 35.1951 26.2245 36.0802 26.7874 36.8216C27.3661 37.5607 28.0931 38.0999 28.9684 38.4391C29.8413 38.7625 30.7921 38.8479 31.8209 38.6952C33.4827 38.4487 34.778 37.5853 35.7068 36.1049L38.5139 38.0177C37.8658 39.1005 36.9937 39.982 35.8977 40.6623C34.8016 41.3425 33.5335 41.7894 32.0933 42.0031ZM47.0879 26.2399C48.6705 26.0051 50.015 26.2909 51.1213 27.0973C52.2435 27.9013 52.9431 29.2371 53.2202 31.1046L54.305 38.4166L50.6015 38.9661L49.6012 32.2238C49.451 31.2109 49.1179 30.492 48.6019 30.0672C48.0836 29.6264 47.4051 29.4683 46.5663 29.5928C45.6325 29.7313 44.9321 30.1344 44.465 30.8022C43.9956 31.4542 43.8454 32.3499 44.0145 33.4894L44.9513 39.8043L41.2479 40.3538L38.6345 22.7386L42.338 22.1891L43.2537 28.3616C43.6715 27.7981 44.2099 27.3382 44.8687 26.9816C45.5251 26.6092 46.2649 26.362 47.0879 26.2399ZM60.8905 24.1921C62.8689 23.8986 64.4587 24.148 65.66 24.9403C66.8589 25.7168 67.5992 27.0546 67.881 28.9538L68.9623 36.242L65.4962 36.7563L65.2602 35.1657C64.74 36.456 63.5302 37.242 61.631 37.5238C60.6498 37.6694 59.7705 37.63 58.9931 37.4057C58.2316 37.179 57.6175 36.801 57.1508 36.2718C56.684 35.7425 56.3955 35.106 56.2851 34.3621C56.109 33.1751 56.4137 32.1756 57.199 31.3635C58.0001 30.5491 59.3345 30.0034 61.2021 29.7263L64.1458 29.2896C64.0261 28.4824 63.6892 27.9016 63.1352 27.5471C62.5788 27.1767 61.81 27.0643 60.8287 27.2099C60.1482 27.3109 59.492 27.5214 58.8601 27.8416C58.2417 28.1436 57.7301 28.5107 57.3251 28.9428L55.6118 26.5524C56.2353 25.9584 57.0099 25.4553 57.9354 25.043C58.8767 24.6284 59.8618 24.3448 60.8905 24.1921ZM62.1871 34.8937C62.8201 34.7998 63.3609 34.574 63.8092 34.2163C64.2552 33.8428 64.5389 33.356 64.6601 32.7557L64.4664 31.45L61.9262 31.8268C60.4068 32.0522 59.7211 32.6635 59.869 33.6606C59.9394 34.1354 60.1778 34.4882 60.5841 34.7191C61.0038 34.9318 61.5382 34.99 62.1871 34.8937ZM80.4604 33.9054C80.1363 34.2284 79.7157 34.5011 79.1987 34.7234C78.6952 34.9275 78.1507 35.073 77.5651 35.1598C76.0457 35.3853 74.8091 35.1724 73.8552 34.5214C72.9172 33.8679 72.3366 32.7895 72.1136 31.2859L71.3352 26.0394L69.3648 26.3317L68.9421 23.4829L70.9125 23.1905L70.4512 20.0806L74.1546 19.5311L74.616 22.6411L77.7972 22.1691L78.2198 25.0179L75.0387 25.4899L75.81 30.689C75.8898 31.2271 76.0866 31.6266 76.4002 31.8874C76.7274 32.13 77.1442 32.2137 77.6507 32.1386C78.2362 32.0517 78.7113 31.8195 79.0758 31.4419L80.4604 33.9054Z" fill="white"/>
<path d="M107.595 27.3376L99.8798 28.4823L98.9362 32.2617L94.9953 32.8463L99.9368 15.1293L103.735 14.5658L113.631 30.0815L109.596 30.6803L107.595 27.3376ZM105.951 24.5972L102.372 18.6258L100.681 25.3791L105.951 24.5972ZM120.721 15.7823C121.908 15.6062 123.025 15.7235 124.073 16.1342C125.134 16.5267 126.015 17.1805 126.717 18.0954C127.417 18.9944 127.864 20.1008 128.059 21.4144C128.253 22.728 128.148 23.9245 127.742 25.0038C127.334 26.0672 126.68 26.9487 125.781 27.6482C124.895 28.3295 123.859 28.7583 122.672 28.9344C121.042 29.1762 119.683 28.852 118.597 27.9618L119.481 33.9206L115.778 34.4701L113.199 17.0923L116.737 16.5675L116.955 18.0394C117.709 16.7953 118.964 16.0429 120.721 15.7823ZM121.58 25.9907C122.53 25.8498 123.258 25.4182 123.766 24.6959C124.287 23.9555 124.467 23.0471 124.308 21.9709C124.148 20.8947 123.713 20.0858 123.001 19.5443C122.304 18.9847 121.48 18.7753 120.53 18.9162C119.581 19.057 118.846 19.4977 118.325 20.2382C117.817 20.9605 117.643 21.8597 117.803 22.936C117.963 24.0122 118.391 24.8301 119.089 25.3898C119.8 25.9313 120.63 26.1316 121.58 25.9907ZM137.112 13.3506C138.299 13.1745 139.416 13.2918 140.463 13.7025C141.525 14.095 142.406 14.7487 143.108 15.6636C143.807 16.5627 144.255 17.669 144.45 18.9827C144.644 20.2963 144.539 21.4927 144.133 22.572C143.724 23.6354 143.071 24.5169 142.172 25.2164C141.286 25.8978 140.25 26.3265 139.063 26.5026C137.433 26.7445 136.074 26.4203 134.988 25.5301L135.872 31.4889L132.169 32.0383L129.59 14.6605L133.128 14.1357L133.346 15.6076C134.1 14.3635 135.355 13.6112 137.112 13.3506ZM137.971 23.559C138.921 23.4181 139.649 22.9865 140.157 22.2642C140.678 21.5237 140.858 20.6154 140.699 19.5392C140.539 18.4629 140.103 17.6541 139.392 17.1126C138.695 16.5529 137.871 16.3435 136.921 16.4844C135.972 16.6253 135.236 17.066 134.716 17.8064C134.208 18.5287 134.034 19.428 134.194 20.5042C134.353 21.5804 134.782 22.3984 135.48 22.958C136.191 23.4995 137.021 23.6998 137.971 23.559Z" fill="white"/>
<rect x="38.4058" y="21.239" width="3.74186" height="2.25246" transform="rotate(-8.58974 38.4058 21.239)" fill="white"/>
</svg>
